<svg width="1021" height="1021" viewBox="0 0 1021 1021" fill="none" xmlns="http://www.w3.org/2000/svg">
<path d="M247.405 404.292C243.558 407.465 238.719 411.552 233.247 416.274C228.483 430.879 215.734 477.887 215.166 525.127C214.987 539.967 223.037 547.623 230.048 553.694C244.799 566.469 271.501 571.119 306.191 572.52C316.223 572.926 324.098 569.805 353.649 547.874C378.899 529.135 421.948 491.041 446.108 472.037C470.268 453.033 494.774 513.332 496.263 518.088C514.263 575.588 526.573 631.911 538.958 643.588C552.476 656.331 584.123 652.27 605.838 650.496C622.186 649.16 646.272 553.433 657.263 544.588C662.83 540.107 672.222 504.753 699.29 471.647C708.625 460.23 748.345 467.584 753.263 472.037C777.381 493.871 765.242 495.864 789.263 511.088C821.567 531.56 859.259 521.983 881.763 498.088C886.017 485.105 887.165 414.124 887.565 404.57C887.761 398.197 887.239 386.345 887.428 376.588C890.439 381.918 894.093 389.397 895.412 394.215C888.694 369.666 856.008 335.721 838.087 320.392C825.653 309.757 791.109 310.431 744.574 323.686C714.906 332.136 663.772 360.128 634.221 373.183C600.02 388.292 574.695 389.444 538.958 388.976C511.54 388.618 479.913 375.401 445.485 364.407C424.353 357.658 383.151 358.843 330.771 360.407C298.022 365.792 285.974 372.277 276.56 379.985C271.8 384.049 265.513 389.96 256.562 397.186C253.779 399.433 250.738 401.807 247.405 404.292Z" fill="#FFFBEF"/>
<path d="M256.562 397.186C265.513 389.96 271.8 384.049 276.56 379.985M256.562 397.186C253.779 399.433 250.738 401.807 247.405 404.292M256.562 397.186C255.653 397.65 252.347 400.216 247.405 404.292M170.107 474.888C131.52 514.502 128.045 563.251 124.498 587.419C120.775 612.786 124.661 633.984 128.861 648.041C136.394 673.249 150.505 695.657 161.736 711.828C173.448 728.692 203.508 752.003 247.519 781.23C268.962 795.47 291.232 804.328 317.717 812.858C344.201 821.389 374.9 828.256 416.806 832.672C458.712 837.089 510.894 838.847 541.319 839.341C571.745 839.834 578.832 839.009 598.587 832.51C618.341 826.011 650.547 813.862 679.543 800.71C734.342 775.853 763.984 755.307 785.808 730.723C803.293 711.026 830.825 674.126 848.021 650.544C871.727 618.036 880.822 592.853 889.189 566.773C892.963 555.008 894.508 545.838 895.938 520.159C899.704 452.535 898.133 404.159 895.412 394.215M170.107 474.888C189.221 455.264 214.846 432.131 233.263 416.224C233.258 416.241 233.252 416.258 233.247 416.274M170.107 474.888C189.201 455.285 214.815 432.18 233.247 416.274M895.412 394.215C888.694 369.666 856.008 335.721 838.087 320.392C825.653 309.757 791.109 310.431 744.574 323.686C714.906 332.136 663.772 360.128 634.221 373.183C600.02 388.292 574.695 389.444 538.958 388.976C511.54 388.618 479.913 375.401 445.485 364.407C424.353 357.658 383.151 358.843 330.771 360.407C298.022 365.792 285.974 372.277 276.56 379.985M895.412 394.215C894.093 389.397 890.439 381.918 887.428 376.588C887.239 386.345 887.761 398.197 887.565 404.57C887.165 414.124 886.017 485.105 881.763 498.088C859.259 521.983 821.567 531.56 789.263 511.088C765.242 495.864 777.381 493.871 753.263 472.037C748.345 467.584 708.625 460.23 699.29 471.647C672.222 504.753 662.83 540.107 657.263 544.588C646.272 553.433 622.186 649.16 605.838 650.496C584.123 652.27 552.476 656.331 538.958 643.588C526.573 631.911 514.263 575.588 496.263 518.088C494.774 513.332 470.268 453.033 446.108 472.037C421.948 491.041 378.899 529.135 353.649 547.874C324.098 569.805 316.223 572.926 306.191 572.52C271.501 571.119 244.799 566.469 230.048 553.694C223.037 547.623 214.987 539.967 215.166 525.127C215.734 477.887 228.483 430.879 233.247 416.274M276.56 379.985C270.319 385.313 261.457 393.814 247.405 404.292M246.836 404.715C247.027 404.574 247.216 404.433 247.405 404.292M247.405 404.292C243.558 407.465 238.719 411.552 233.247 416.274" stroke="#FFFBEF" stroke-width="19" stroke-linecap="round"/>
<path d="M185.812 662.406L137.627 524.36H158.763L195.902 635.542H196.448L207.766 560.86H224.403L235.721 635.678H236.266L245.812 592.587H266.948L246.357 662.406H228.221L216.357 623.406H215.812L203.948 662.406H185.812Z" fill="#958F22"/>
<path d="M276.763 651.224V581.406H295.718V608.679H320.809V581.406H339.763V674.951H320.809V623.951H295.718V651.224H276.763Z" fill="#958F22"/>
<path d="M415.172 587.542C415.172 630.997 413.661 637.554 410.638 642.894C407.616 648.213 403.536 652.247 398.4 654.997C393.263 657.724 387.536 659.087 381.218 659.087C374.854 659.087 369.104 657.712 363.968 654.962C358.854 652.19 354.786 648.144 351.763 642.826C348.763 637.485 347.263 630.951 347.263 587.542C347.263 579.769 348.763 573.224 351.763 567.906C354.786 562.565 358.854 558.531 363.968 555.804C369.104 553.054 374.854 551.678 381.218 551.678C387.536 551.678 393.263 553.054 398.4 555.804C403.536 558.531 407.616 562.565 410.638 567.906C413.661 573.224 415.172 579.769 415.172 587.542ZM395.672 587.542C395.672 583.36 395.116 579.838 394.002 576.974C392.911 574.088 391.286 571.906 389.127 570.429C386.991 568.929 384.354 568.179 381.218 568.179C378.081 568.179 375.434 568.929 373.275 570.429C371.138 571.906 369.513 574.088 368.4 576.974C367.309 579.838 366.763 583.36 366.763 587.542C366.763 591.724 367.309 630.94 368.4 633.826C369.513 636.69 371.138 638.872 373.275 640.372C375.434 641.849 378.081 642.588 381.218 642.588C384.354 642.588 386.991 641.849 389.127 640.372C391.286 638.872 392.911 636.69 394.002 633.826C395.116 630.94 395.672 591.724 395.672 587.542Z" fill="#958F22"/>
<path d="M431.945 542.133V550.315C431.945 552.542 431.491 554.769 430.581 556.997C429.695 559.201 428.559 561.258 427.172 563.167C425.809 565.054 424.4 566.633 422.945 567.906L415.172 563.951C416.127 562.315 416.979 560.417 417.729 558.258C418.479 556.099 418.854 553.451 418.854 550.315V542.133H431.945Z" fill="#958F22"/>
<path d="M462.354 625.758C462.172 623.485 461.32 621.713 459.797 620.44C458.297 619.167 456.013 618.531 452.945 618.531C450.991 618.531 449.388 618.769 448.138 619.247C446.911 619.701 446.002 620.326 445.411 621.122C444.82 621.917 444.513 622.826 444.491 623.849C444.445 624.69 444.593 625.451 444.934 626.133C445.297 626.792 445.866 627.394 446.638 627.94C447.411 628.463 448.4 628.94 449.604 629.372C450.809 629.803 452.241 630.19 453.9 630.531L459.627 631.758C463.491 632.576 466.797 633.656 469.547 634.997C472.297 636.338 474.547 637.917 476.297 639.735C478.047 641.531 479.332 643.553 480.15 645.803C480.991 648.053 481.422 650.508 481.445 653.167C481.422 657.758 480.275 661.644 478.002 664.826C475.729 668.008 472.479 670.428 468.252 672.087C464.047 673.746 458.991 674.576 453.081 674.576C447.013 674.576 441.718 673.678 437.195 671.883C432.695 670.087 429.195 667.326 426.695 663.599C424.218 659.849 422.968 655.053 422.945 649.212H440.945C441.059 651.349 441.593 653.144 442.547 654.599C443.502 656.053 444.843 657.156 446.57 657.906C448.32 658.656 450.4 659.031 452.809 659.031C454.832 659.031 456.525 658.781 457.888 658.281C459.252 657.781 460.286 657.088 460.991 656.201C461.695 655.315 462.059 654.303 462.081 653.167C462.059 652.099 461.706 651.167 461.025 650.372C460.366 649.553 459.275 648.826 457.752 648.19C456.229 647.531 454.172 646.917 451.581 646.349L444.627 644.849C438.445 643.508 433.57 641.269 430.002 638.133C426.456 634.974 424.695 630.667 424.718 625.213C424.695 620.781 425.877 616.906 428.263 613.588C430.672 610.247 434.002 607.644 438.252 605.781C442.525 603.917 447.422 602.985 452.945 602.985C458.581 602.985 463.456 603.928 467.57 605.815C471.684 607.701 474.854 610.36 477.081 613.792C479.331 617.201 480.468 621.19 480.491 625.758H462.354Z" fill="#958F22"/>
<path d="M226.809 760.985V671.587H245.763V718.44L276.805 719.326V661.372H295.76V761.872H276.805V734.599L245.763 733.712V760.985H226.809Z" fill="#958F22"/>
<path d="M362.809 668.087H381.763L381.763 784.178C381.763 789.497 380.49 794.099 377.945 797.985C375.422 801.849 371.9 804.837 367.377 806.951C362.854 809.042 357.604 810.087 351.627 810.087C345.604 810.087 340.331 809.042 335.809 806.951C331.286 804.837 327.763 801.849 325.24 797.985C322.74 794.099 321.49 789.497 321.49 784.178L321.49 679.678H340.445L340.445 782.542C340.445 784.701 340.922 786.633 341.877 788.338C342.831 790.019 344.15 791.337 345.831 792.292C347.536 793.247 349.468 793.724 351.627 793.724C353.809 793.724 355.74 793.247 357.422 792.292C359.104 791.337 360.422 790.019 361.377 788.338C362.331 786.633 362.809 784.701 362.809 782.542L362.809 668.087Z" fill="#958F22"/>
<path d="M480.552 681.087V830.087H464.734L407.627 700.393H407.218V825.587H388.263V667.256H404.354L461.052 784.178H461.598V681.087H480.552Z" fill="#958F22"/>
<path d="M535.84 688.951C535.544 687.747 535.078 686.69 534.442 685.781C533.806 684.849 533.01 684.065 532.056 683.428C531.124 682.769 530.033 682.281 528.783 681.962C527.556 681.622 526.203 681.451 524.726 681.451C521.544 681.451 518.828 682.212 516.578 683.735C514.351 685.258 512.646 687.451 511.465 690.315C510.306 693.178 509.726 790.701 509.726 794.747C509.726 798.837 510.283 802.337 511.396 805.247C512.51 808.156 514.169 810.383 516.374 811.928C518.578 813.474 521.317 814.247 524.59 814.247C527.476 814.247 529.874 813.826 531.783 812.985C533.715 812.144 535.158 810.951 536.112 809.406C537.067 807.86 537.544 806.042 537.544 803.951L540.817 804.292H524.862V790.792H555.817V800.474C555.817 806.838 554.465 812.281 551.76 816.803C549.078 821.303 545.374 824.758 540.646 827.167C535.942 829.553 530.544 830.747 524.453 830.747C517.658 830.747 511.692 829.303 506.556 826.417C501.419 823.531 497.408 819.417 494.521 814.076C491.658 808.735 490.226 802.383 490.226 795.019C490.226 789.247 491.101 690.065 492.851 685.61C494.624 681.156 497.078 677.394 500.215 674.326C503.351 671.235 506.976 668.906 511.09 667.337C515.203 665.747 519.612 664.951 524.317 664.951C528.453 664.951 532.294 665.542 535.84 666.724C539.408 667.883 542.556 669.542 545.283 671.701C548.033 673.837 550.249 676.372 551.931 679.303C553.612 682.235 554.635 685.451 554.999 688.951H535.84Z" fill="#958F22"/>
<path d="M524.862 787.839L524.453 693.587H572.206C577.388 693.587 581.922 694.531 585.809 696.417C589.695 698.303 592.718 701.019 594.877 704.565C597.036 708.11 598.115 712.36 598.115 717.315C598.115 722.315 597.002 726.531 594.775 729.963C592.57 733.394 581.047 734.837 577.047 736.587C573.07 738.337 577.003 736.587 571.685 736.587H536.068L535.908 725.633H550.09C552.317 725.633 571.831 725.36 573.4 724.815C574.99 724.247 576.206 723.349 577.047 722.122C577.911 720.894 578.343 719.292 578.343 717.315C578.343 715.315 577.911 713.69 577.047 712.44C576.206 711.167 574.99 710.235 573.4 709.644C571.831 709.031 552.317 708.724 550.09 708.724H543.408L543.817 787.839H524.862ZM582.979 731.36L621.843 812.985H601.252L566.934 731.36H582.979Z" fill="#958F22"/>
<path d="M601.252 740.962H622.388L636.025 769.326H636.57L666.015 681.962H687.152L645.706 788.826V810.781H626.888V788.826L601.252 740.962Z" fill="#958F22"/>
<path d="M714.681 672.767V667.53C714.681 655.528 715.625 645.963 717.512 638.834C719.4 631.706 722.195 625.996 725.898 621.704C729.601 617.34 734.139 613.412 739.511 609.921C744.158 606.866 748.296 603.92 751.926 601.083C755.629 598.246 758.533 595.227 760.639 592.027C762.817 588.826 763.906 585.189 763.906 581.116C763.906 577.479 763.034 574.279 761.292 571.514C759.549 568.75 757.19 566.605 754.213 565.077C751.236 563.55 747.933 562.786 744.303 562.786C740.382 562.786 736.752 563.695 733.412 565.514C730.145 567.332 727.495 569.841 725.462 573.042C723.502 576.242 722.522 579.952 722.522 584.171H666.763C666.908 568.168 670.539 555.185 677.654 545.219C684.769 535.181 694.207 527.835 705.969 523.18C717.73 518.452 730.654 516.088 744.739 516.088C760.276 516.088 774.143 518.379 786.34 522.961C798.537 527.471 808.157 534.309 815.199 543.474C822.242 552.566 825.763 563.95 825.763 577.625C825.763 586.426 824.239 594.173 821.189 600.865C818.212 607.484 814.038 613.339 808.665 618.431C803.365 623.45 797.158 628.032 790.043 632.179C784.815 635.234 780.423 638.398 776.865 641.671C773.308 644.872 770.621 648.545 768.806 652.691C766.991 656.764 766.084 661.711 766.084 667.53V672.767H714.681ZM741.254 746.088C732.832 746.088 725.608 743.142 719.582 737.25C713.628 731.285 710.688 724.048 710.76 715.537C710.688 707.245 713.628 700.153 719.582 694.261C725.608 688.369 732.832 685.423 741.254 685.423C749.24 685.423 756.282 688.369 762.381 694.261C768.552 700.153 771.674 707.245 771.747 715.537C771.674 721.211 770.186 726.375 767.282 731.031C764.45 735.613 760.747 739.286 756.173 742.051C751.599 744.742 746.626 746.088 741.254 746.088Z" fill="#958F22"/>
<path d="M249.8 240.919C249.841 240.919 249.881 240.919 274.38 240.979C298.878 241.038 347.833 241.158 373.554 241.518C399.275 241.878 400.278 242.475 390.731 253.305C381.184 264.135 361.056 285.179 350.152 296.341C339.248 307.504 338.18 308.146 334.857 308.469" stroke="#FFFBEF" stroke-width="19" stroke-linecap="round"/>
<path d="M743.25 181C741.031 181.06 732.151 182.057 710.547 189.438C692.558 195.583 660.82 208.059 645.154 215.047C629.488 222.035 630.987 223.53 645.174 231.615C659.362 239.701 686.191 254.332 700.903 262.228C715.616 270.124 717.398 270.842 718.542 271.998" stroke="#FFFBEF" stroke-width="19" stroke-linecap="round"/>
<path d="M533.11 316.531C533.11 314.526 534.652 307.431 540.268 301.394C548.353 292.701 559.422 294.04 571.623 293.597C580.426 293.277 589.656 301.891 596.349 311.427C597.468 313.489 597.926 314.619 597.526 315.032C597.126 315.444 595.855 315.104 594.545 314.754" stroke="#FFFBEF" stroke-width="19" stroke-linecap="round"/>
</svg>
